# xmcd CD database file
#
# Track frame offsets:
#	150
#	59307
#	90877
#	110974
#	160056
#	209706
#	218720
#	244132
#	253342
#	282001
#
# Disc length: 4149 seconds
#
# Revision: 0
# Processed by: cddbd v1.4PL0 Copyright (c) Steve Scherf et al.
# Submitted via: CDex 1.50Beta7
#
DISCID=9310330a
DTITLE=Fake Orchestra - Fake Life
DYEAR=2001
DGENRE=Jazz
TTITLE0=Guinee
TTITLE1=Victoria
TTITLE2=La Valle
TTITLE3=Seekers
TTITLE4=Sfinx - Compute
TTITLE5=Percussion solo
TTITLE6=Drum solo
TTITLE7=Bass solo
TTITLE8=Romanian Dances
TTITLE9=The Bridge
EXTD=YEAR: 2001
EXTT0=
EXTT1=
EXTT2=
EXTT3=
EXTT4=
EXTT5=
EXTT6=
EXTT7=
EXTT8=
EXTT9=
PLAYORDER=
